<mxfile host="app.diagrams.net" modified="2021-01-14T19:52:20.521Z" agent="5.0 (Windows NT 10.0; Win64; x64) AppleWebKit/537.36 (KHTML, like Gecko) Chrome/87.0.4280.141 Safari/537.36" etag="8bL2nZr6mlQCJDn_CfGb" version="14.1.4" type="github">
  <diagram id="_4hKqY-cZXE7VdDxUb8r" name="Page-1">
    <mxGraphModel dx="2391" dy="862" grid="1" gridSize="10" guides="1" tooltips="1" connect="1" arrows="1" fold="1" page="1" pageScale="1" pageWidth="827" pageHeight="1169" math="0" shadow="0">
      <root>
        <mxCell id="0" />
        <mxCell id="1" parent="0" />
        <mxCell id="y1TS2lOlESR9C19F99Ym-70" value="" style="edgeStyle=none;rounded=0;orthogonalLoop=1;jettySize=auto;html=1;endArrow=none;endFill=0;strokeWidth=3;fontFamily=Verdana;fontSize=17;fontColor=#232F3E;" edge="1" parent="1">
          <mxGeometry relative="1" as="geometry">
            <mxPoint x="170.98283454829473" y="339.9999999999999" as="sourcePoint" />
            <mxPoint x="169.02" y="940" as="targetPoint" />
          </mxGeometry>
        </mxCell>
        <mxCell id="y1TS2lOlESR9C19F99Ym-62" style="rounded=0;orthogonalLoop=1;jettySize=auto;html=1;fontSize=17;fontColor=#232F3E;fontFamily=Verdana;fontStyle=1;endArrow=none;endFill=0;strokeWidth=3;exitX=0.743;exitY=0.341;exitDx=0;exitDy=0;exitPerimeter=0;" edge="1" parent="1">
          <mxGeometry x="-173.32" y="257.44" as="geometry">
            <mxPoint x="162.57000000000005" y="319.49999999999994" as="sourcePoint" />
            <mxPoint x="-320.0000000000001" y="319.49999999999994" as="targetPoint" />
          </mxGeometry>
        </mxCell>
        <mxCell id="y1TS2lOlESR9C19F99Ym-58" style="rounded=0;orthogonalLoop=1;jettySize=auto;html=1;fontSize=17;fontColor=#232F3E;fontFamily=Verdana;fontStyle=1;endArrow=none;endFill=0;strokeWidth=3;exitX=0.743;exitY=0.341;exitDx=0;exitDy=0;exitPerimeter=0;" edge="1" parent="1">
          <mxGeometry x="-174.45" y="895.95" as="geometry">
            <mxPoint x="161.44000000000005" y="958.01" as="sourcePoint" />
            <mxPoint x="-321.13" y="958.01" as="targetPoint" />
          </mxGeometry>
        </mxCell>
        <mxCell id="y1TS2lOlESR9C19F99Ym-9" value="WOC" style="outlineConnect=0;fontColor=#232F3E;gradientColor=none;strokeColor=#ffffff;fillColor=#232F3E;dashed=0;verticalLabelPosition=middle;verticalAlign=bottom;align=center;html=1;whiteSpace=wrap;fontSize=17;fontStyle=1;spacing=3;shape=mxgraph.aws4.productIcon;prIcon=mxgraph.aws4.elastic_load_balancing;fontFamily=Verdana;" vertex="1" parent="1">
          <mxGeometry x="130" y="280" width="80" height="110" as="geometry" />
        </mxCell>
        <mxCell id="y1TS2lOlESR9C19F99Ym-15" value="&lt;font color=&quot;#232f3e&quot; style=&quot;font-size: 23px&quot;&gt;深圳总部&lt;/font&gt;" style="outlineConnect=0;gradientColor=none;html=1;whiteSpace=wrap;fontSize=17;fontStyle=1;shape=mxgraph.aws4.group;grIcon=mxgraph.aws4.group_region;fillColor=none;verticalAlign=top;align=left;spacingLeft=30;fontColor=#879196;dashed=1;fontFamily=Verdana;strokeColor=#232F3E;" vertex="1" parent="1">
          <mxGeometry x="-483.12" y="100" width="743.12" height="440" as="geometry" />
        </mxCell>
        <mxCell id="y1TS2lOlESR9C19F99Ym-19" value="QOS" style="outlineConnect=0;fontColor=#232F3E;gradientColor=none;strokeColor=#ffffff;fillColor=#232F3E;dashed=0;verticalLabelPosition=middle;verticalAlign=bottom;align=center;html=1;whiteSpace=wrap;fontSize=17;fontStyle=1;spacing=3;shape=mxgraph.aws4.productIcon;prIcon=mxgraph.aws4.network_load_balancer;fontFamily=Verdana;" vertex="1" parent="1">
          <mxGeometry x="-33" y="280" width="80" height="110" as="geometry" />
        </mxCell>
        <mxCell id="y1TS2lOlESR9C19F99Ym-20" value="Servers" style="outlineConnect=0;fontColor=#232F3E;gradientColor=none;strokeColor=#ffffff;fillColor=#232F3E;dashed=0;verticalLabelPosition=middle;verticalAlign=bottom;align=center;html=1;whiteSpace=wrap;fontSize=17;fontStyle=1;spacing=3;shape=mxgraph.aws4.productIcon;prIcon=mxgraph.aws4.neptune;fontFamily=Verdana;" vertex="1" parent="1">
          <mxGeometry x="-362.25" y="140" width="80" height="110" as="geometry" />
        </mxCell>
        <mxCell id="y1TS2lOlESR9C19F99Ym-29" value="SD-WAN CPE" style="outlineConnect=0;fontColor=#232F3E;gradientColor=none;strokeColor=#232F3E;fillColor=#ffffff;dashed=0;verticalLabelPosition=bottom;verticalAlign=top;align=center;html=1;fontSize=17;fontStyle=1;aspect=fixed;shape=mxgraph.aws4.resourceIcon;resIcon=mxgraph.aws4.peering;fontFamily=Verdana;" vertex="1" parent="1">
          <mxGeometry x="-360" y="280.5" width="75.5" height="75.5" as="geometry" />
        </mxCell>
        <mxCell id="y1TS2lOlESR9C19F99Ym-30" value="" style="pointerEvents=1;shadow=0;dashed=0;html=1;strokeColor=none;fillColor=#505050;labelPosition=center;verticalLabelPosition=bottom;verticalAlign=top;outlineConnect=0;align=center;shape=mxgraph.office.devices.modem;fontSize=17;fontColor=#232F3E;fontFamily=Verdana;fontStyle=1" vertex="1" parent="1">
          <mxGeometry x="-350" y="453" width="60" height="37.78" as="geometry" />
        </mxCell>
        <mxCell id="y1TS2lOlESR9C19F99Ym-31" value="" style="verticalLabelPosition=bottom;html=1;fillColor=#282828;strokeColor=none;verticalAlign=top;pointerEvents=1;align=center;shape=mxgraph.cisco_safe.security_icons.firewall;dashed=0;fontSize=17;fontColor=#232F3E;fontFamily=Verdana;fontStyle=1" vertex="1" parent="1">
          <mxGeometry x="-206.25" y="780" width="86.25" height="60.98" as="geometry" />
        </mxCell>
        <mxCell id="y1TS2lOlESR9C19F99Ym-32" value="" style="pointerEvents=1;shadow=0;dashed=0;html=1;strokeColor=none;fillColor=#505050;labelPosition=center;verticalLabelPosition=bottom;verticalAlign=top;outlineConnect=0;align=center;shape=mxgraph.office.devices.modem;fontSize=17;fontColor=#232F3E;fontFamily=Verdana;fontStyle=1" vertex="1" parent="1">
          <mxGeometry x="-350.12" y="793" width="60" height="37.78" as="geometry" />
        </mxCell>
        <mxCell id="y1TS2lOlESR9C19F99Ym-33" value="WOC" style="outlineConnect=0;fontColor=#232F3E;gradientColor=none;strokeColor=#ffffff;fillColor=#232F3E;dashed=0;verticalLabelPosition=middle;verticalAlign=bottom;align=center;html=1;whiteSpace=wrap;fontSize=17;fontStyle=1;spacing=3;shape=mxgraph.aws4.productIcon;prIcon=mxgraph.aws4.elastic_load_balancing;fontFamily=Verdana;" vertex="1" parent="1">
          <mxGeometry x="-33" y="920.5" width="80" height="110" as="geometry" />
        </mxCell>
        <mxCell id="y1TS2lOlESR9C19F99Ym-34" value="SDH" style="outlineConnect=0;fontColor=#232F3E;gradientColor=none;strokeColor=#ffffff;fillColor=#232F3E;dashed=0;verticalLabelPosition=middle;verticalAlign=bottom;align=center;html=1;whiteSpace=wrap;fontSize=17;fontStyle=1;spacing=3;shape=mxgraph.aws4.productIcon;prIcon=mxgraph.aws4.sqs;fontFamily=Verdana;" vertex="1" parent="1">
          <mxGeometry x="130" y="600" width="80" height="100" as="geometry" />
        </mxCell>
        <mxCell id="y1TS2lOlESR9C19F99Ym-35" value="QOS" style="outlineConnect=0;fontColor=#232F3E;gradientColor=none;strokeColor=#ffffff;fillColor=#232F3E;dashed=0;verticalLabelPosition=middle;verticalAlign=bottom;align=center;html=1;whiteSpace=wrap;fontSize=17;fontStyle=1;spacing=3;shape=mxgraph.aws4.productIcon;prIcon=mxgraph.aws4.network_load_balancer;fontFamily=Verdana;" vertex="1" parent="1">
          <mxGeometry x="130" y="920.5" width="80" height="110" as="geometry" />
        </mxCell>
        <mxCell id="y1TS2lOlESR9C19F99Ym-36" value="" style="points=[[0.015,0.015,0],[0.985,0.015,0],[0.985,0.985,0],[0.015,0.985,0],[0.25,0,0],[0.5,0,0],[0.75,0,0],[1,0.25,0],[1,0.5,0],[1,0.75,0],[0.75,1,0],[0.5,1,0],[0.25,1,0],[0,0.75,0],[0,0.5,0],[0,0.25,0]];verticalLabelPosition=bottom;html=1;verticalAlign=top;aspect=fixed;align=center;pointerEvents=1;shape=mxgraph.cisco19.rect;prIcon=l3_switch;fillColor=#FAFAFA;strokeColor=#005073;dashed=0;fontSize=17;fontColor=#232F3E;fontFamily=Verdana;fontStyle=1" vertex="1" parent="1">
          <mxGeometry x="-203" y="920" width="80" height="80" as="geometry" />
        </mxCell>
        <mxCell id="y1TS2lOlESR9C19F99Ym-37" value="SD-WAN CPE" style="outlineConnect=0;fontColor=#232F3E;gradientColor=none;strokeColor=#232F3E;fillColor=#ffffff;dashed=0;verticalLabelPosition=bottom;verticalAlign=top;align=center;html=1;fontSize=17;fontStyle=1;aspect=fixed;shape=mxgraph.aws4.resourceIcon;resIcon=mxgraph.aws4.peering;fontFamily=Verdana;" vertex="1" parent="1">
          <mxGeometry x="-360" y="920.5" width="75.5" height="75.5" as="geometry" />
        </mxCell>
        <mxCell id="y1TS2lOlESR9C19F99Ym-48" value="" style="group" vertex="1" connectable="0" parent="1">
          <mxGeometry x="-353.12" y="572.34" width="230" height="155.33000000000004" as="geometry" />
        </mxCell>
        <mxCell id="y1TS2lOlESR9C19F99Ym-44" value="" style="ellipse;shape=cloud;whiteSpace=wrap;html=1;dashed=0;fontSize=17;fontColor=#232F3E;fontStyle=1;verticalAlign=bottom;spacing=3;strokeColor=#232F3E;fillColor=none;strokeWidth=5;perimeterSpacing=2;opacity=80;shadow=0;sketch=1;fontFamily=Verdana;" vertex="1" parent="y1TS2lOlESR9C19F99Ym-48">
          <mxGeometry width="230" height="153.33" as="geometry" />
        </mxCell>
        <mxCell id="y1TS2lOlESR9C19F99Ym-45" value="&lt;font style=&quot;font-size: 31px&quot;&gt;Internet&lt;/font&gt;" style="text;html=1;align=center;verticalAlign=middle;resizable=0;points=[];autosize=1;fontSize=17;fontColor=#232F3E;fontFamily=Verdana;fontStyle=1" vertex="1" parent="y1TS2lOlESR9C19F99Ym-48">
          <mxGeometry x="40.120000000000005" y="66.65999999999997" width="160" height="30" as="geometry" />
        </mxCell>
        <mxCell id="y1TS2lOlESR9C19F99Ym-52" style="rounded=0;orthogonalLoop=1;jettySize=auto;html=1;fontSize=17;fontColor=#232F3E;fontFamily=Verdana;fontStyle=1;endArrow=none;endFill=0;strokeWidth=3;" edge="1" parent="y1TS2lOlESR9C19F99Ym-48">
          <mxGeometry x="-320" y="502.34000000000003" as="geometry">
            <mxPoint x="33.120000000000005" y="40.66000000000001" as="sourcePoint" />
            <mxPoint x="33.120000000000005" y="-66.73701507127933" as="targetPoint" />
          </mxGeometry>
        </mxCell>
        <mxCell id="y1TS2lOlESR9C19F99Ym-38" style="rounded=0;orthogonalLoop=1;jettySize=auto;html=1;fontSize=17;fontColor=#232F3E;fontFamily=Verdana;fontStyle=1;entryX=0.807;entryY=0.821;entryDx=0;entryDy=0;entryPerimeter=0;endArrow=none;endFill=0;strokeWidth=3;" edge="1" parent="1">
          <mxGeometry x="-320.2" y="690" as="geometry">
            <mxPoint x="-162.89999999999998" y="784.1862048222695" as="sourcePoint" />
            <mxPoint x="-163.35199999999986" y="693" as="targetPoint" />
          </mxGeometry>
        </mxCell>
        <mxCell id="y1TS2lOlESR9C19F99Ym-47" style="rounded=0;orthogonalLoop=1;jettySize=auto;html=1;fontSize=17;fontColor=#232F3E;fontFamily=Verdana;fontStyle=1;endArrow=none;endFill=0;strokeWidth=3;" edge="1" parent="1">
          <mxGeometry x="-320.2" y="690" as="geometry">
            <mxPoint x="-320.2" y="793" as="sourcePoint" />
            <mxPoint x="-320.2" y="693.0371177268953" as="targetPoint" />
          </mxGeometry>
        </mxCell>
        <mxCell id="y1TS2lOlESR9C19F99Ym-55" value="&lt;div style=&quot;text-align: center&quot;&gt;&lt;font face=&quot;verdana&quot;&gt;&lt;b&gt;ADSL&lt;/b&gt;&lt;/font&gt;&lt;/div&gt;&lt;div style=&quot;text-align: center&quot;&gt;&lt;font face=&quot;verdana&quot;&gt;&lt;b&gt;Modem&lt;/b&gt;&lt;/font&gt;&lt;/div&gt;" style="text;whiteSpace=wrap;html=1;fontSize=17;fontFamily=Verdana;fontColor=#232F3E;" vertex="1" parent="1">
          <mxGeometry x="-431.12" y="793" width="78" height="40" as="geometry" />
        </mxCell>
        <mxCell id="y1TS2lOlESR9C19F99Ym-56" style="rounded=0;orthogonalLoop=1;jettySize=auto;html=1;fontSize=17;fontColor=#232F3E;fontFamily=Verdana;fontStyle=1;endArrow=none;endFill=0;strokeWidth=3;" edge="1" parent="1">
          <mxGeometry x="-320.59" y="827.74" as="geometry">
            <mxPoint x="-320.59000000000003" y="930.74" as="sourcePoint" />
            <mxPoint x="-320.59000000000003" y="830.7771177268953" as="targetPoint" />
          </mxGeometry>
        </mxCell>
        <mxCell id="y1TS2lOlESR9C19F99Ym-57" style="rounded=0;orthogonalLoop=1;jettySize=auto;html=1;fontSize=17;fontColor=#232F3E;fontFamily=Verdana;fontStyle=1;endArrow=none;endFill=0;strokeWidth=3;exitX=0.5;exitY=0;exitDx=0;exitDy=0;exitPerimeter=0;" edge="1" parent="1" source="y1TS2lOlESR9C19F99Ym-36">
          <mxGeometry x="-163.32" y="837.94" as="geometry">
            <mxPoint x="-163.3200000000004" y="940.94" as="sourcePoint" />
            <mxPoint x="-163.3200000000004" y="840.9771177268954" as="targetPoint" />
          </mxGeometry>
        </mxCell>
        <mxCell id="y1TS2lOlESR9C19F99Ym-23" value="" style="verticalLabelPosition=bottom;html=1;fillColor=#282828;strokeColor=none;verticalAlign=top;pointerEvents=1;align=center;shape=mxgraph.cisco_safe.security_icons.firewall;dashed=0;fontSize=17;fontColor=#232F3E;fontFamily=Verdana;fontStyle=1" vertex="1" parent="1">
          <mxGeometry x="-207.25" y="439.02" width="86.25" height="60.98" as="geometry" />
        </mxCell>
        <mxCell id="y1TS2lOlESR9C19F99Ym-66" value="" style="edgeStyle=none;rounded=0;orthogonalLoop=1;jettySize=auto;html=1;endArrow=none;endFill=0;strokeWidth=3;fontFamily=Verdana;fontSize=17;fontColor=#232F3E;" edge="1" parent="1">
          <mxGeometry relative="1" as="geometry">
            <mxPoint x="-162.51716545170535" y="503.34" as="sourcePoint" />
            <mxPoint x="-163.48000000000002" y="600" as="targetPoint" />
          </mxGeometry>
        </mxCell>
        <mxCell id="y1TS2lOlESR9C19F99Ym-67" value="" style="edgeStyle=none;rounded=0;orthogonalLoop=1;jettySize=auto;html=1;endArrow=none;endFill=0;strokeWidth=3;fontFamily=Verdana;fontSize=17;fontColor=#232F3E;" edge="1" parent="1">
          <mxGeometry relative="1" as="geometry">
            <mxPoint x="-162.6471654517054" y="343.33999999999986" as="sourcePoint" />
            <mxPoint x="-163.61" y="439.99999999999994" as="targetPoint" />
          </mxGeometry>
        </mxCell>
        <mxCell id="y1TS2lOlESR9C19F99Ym-27" value="" style="points=[[0.015,0.015,0],[0.985,0.015,0],[0.985,0.985,0],[0.015,0.985,0],[0.25,0,0],[0.5,0,0],[0.75,0,0],[1,0.25,0],[1,0.5,0],[1,0.75,0],[0.75,1,0],[0.5,1,0],[0.25,1,0],[0,0.75,0],[0,0.5,0],[0,0.25,0]];verticalLabelPosition=bottom;html=1;verticalAlign=top;aspect=fixed;align=center;pointerEvents=1;shape=mxgraph.cisco19.rect;prIcon=l3_switch;fillColor=#FAFAFA;strokeColor=#005073;dashed=0;fontSize=17;fontColor=#232F3E;fontFamily=Verdana;fontStyle=1" vertex="1" parent="1">
          <mxGeometry x="-203" y="280" width="80" height="80" as="geometry" />
        </mxCell>
        <mxCell id="y1TS2lOlESR9C19F99Ym-68" value="" style="edgeStyle=none;rounded=0;orthogonalLoop=1;jettySize=auto;html=1;endArrow=none;endFill=0;strokeWidth=3;fontFamily=Verdana;fontSize=17;fontColor=#232F3E;" edge="1" parent="1">
          <mxGeometry relative="1" as="geometry">
            <mxPoint x="-319.5171654517054" y="355.9999999999999" as="sourcePoint" />
            <mxPoint x="-320.48" y="452.66" as="targetPoint" />
          </mxGeometry>
        </mxCell>
        <mxCell id="y1TS2lOlESR9C19F99Ym-69" value="&lt;div style=&quot;text-align: center&quot;&gt;&lt;font face=&quot;verdana&quot;&gt;&lt;b&gt;ADSL&lt;/b&gt;&lt;/font&gt;&lt;/div&gt;&lt;div style=&quot;text-align: center&quot;&gt;&lt;font face=&quot;verdana&quot;&gt;&lt;b&gt;Modem&lt;/b&gt;&lt;/font&gt;&lt;/div&gt;" style="text;whiteSpace=wrap;html=1;fontSize=17;fontFamily=Verdana;fontColor=#232F3E;" vertex="1" parent="1">
          <mxGeometry x="-431.12" y="455" width="78" height="40" as="geometry" />
        </mxCell>
        <mxCell id="y1TS2lOlESR9C19F99Ym-71" value="&lt;font color=&quot;#232f3e&quot; style=&quot;font-size: 23px&quot;&gt;四川分支&lt;/font&gt;" style="outlineConnect=0;gradientColor=none;html=1;whiteSpace=wrap;fontSize=17;fontStyle=1;shape=mxgraph.aws4.group;grIcon=mxgraph.aws4.group_region;fillColor=none;verticalAlign=top;align=left;spacingLeft=30;fontColor=#879196;dashed=1;fontFamily=Verdana;strokeColor=#003300;" vertex="1" parent="1">
          <mxGeometry x="-483.12" y="750" width="743.12" height="380" as="geometry" />
        </mxCell>
      </root>
    </mxGraphModel>
  </diagram>
</mxfile>
